<svg width="17" height="17" viewBox="0 0 17 17" fill="none" xmlns="http://www.w3.org/2000/svg">
<g id="mdi:twitter">
<path id="Vector" d="M15.2527 4.65415C14.7414 4.88655 14.1903 5.03926 13.6193 5.1123C14.2036 4.76039 14.6551 4.20264 14.8676 3.53201C14.3165 3.864 13.7056 4.0964 13.0616 4.2292C12.537 3.65817 11.8 3.32617 10.9633 3.32617C9.40297 3.32617 8.12811 4.60103 8.12811 6.17469C8.12811 6.40044 8.15467 6.61956 8.20115 6.8254C5.83735 6.70588 3.7325 5.57046 2.33148 3.85072C2.08581 4.26904 1.94637 4.76039 1.94637 5.2783C1.94637 6.26764 2.44436 7.14411 3.21459 7.6421C2.74316 7.6421 2.30493 7.5093 1.91981 7.31011V7.33003C1.91981 8.71112 2.90252 9.86647 4.20393 10.1254C3.7861 10.2398 3.34745 10.2557 2.92244 10.1719C3.10278 10.7379 3.45598 11.2332 3.93237 11.5881C4.40877 11.9431 4.98442 12.1398 5.57839 12.1506C4.57154 12.9477 3.32348 13.3785 2.03933 13.3723C1.81357 13.3723 1.58782 13.359 1.36206 13.3325C2.62364 14.1426 4.12426 14.614 5.73111 14.614C10.9633 14.614 13.8384 10.2715 13.8384 6.50668C13.8384 6.38052 13.8384 6.261 13.8318 6.13485C14.3895 5.73645 14.8676 5.23182 15.2527 4.65415Z" fill="#F8F8F8"/>
</g>
</svg>
