<svg width="17" height="17" viewBox="0 0 17 17" fill="none" xmlns="http://www.w3.org/2000/svg">
<g id="ic:baseline-telegram">
<path id="Vector" d="M8.2771 1.99902C4.61188 1.99902 1.63721 4.9737 1.63721 8.63892C1.63721 12.3041 4.61188 15.2788 8.2771 15.2788C11.9423 15.2788 14.917 12.3041 14.917 8.63892C14.917 4.9737 11.9423 1.99902 8.2771 1.99902ZM11.358 6.51415C11.2584 7.56325 10.8268 10.113 10.6077 11.2882C10.5147 11.7862 10.3288 11.9522 10.1562 11.9721C9.77107 12.0053 9.47892 11.7198 9.10709 11.4741C8.52277 11.089 8.19078 10.85 7.62639 10.4782C6.96904 10.0466 7.39399 9.80754 7.77247 9.42242C7.87207 9.32282 9.57188 7.77573 9.60508 7.63629C9.60969 7.61517 9.60908 7.59325 9.60329 7.57242C9.5975 7.55159 9.58672 7.53249 9.57188 7.51677C9.53204 7.48357 9.47892 7.49685 9.43244 7.50349C9.37268 7.51677 8.4431 8.13428 6.63041 9.35602C6.36481 9.5353 6.12577 9.62826 5.9133 9.62162C5.67426 9.61498 5.22275 9.48882 4.88411 9.37594C4.4658 9.24315 4.14045 9.17011 4.16701 8.93771C4.18029 8.81819 4.34628 8.69867 4.65836 8.57252C6.59721 7.72925 7.88535 7.1715 8.52941 6.9059C10.3753 6.13568 10.7538 6.00288 11.0061 6.00288C11.0592 6.00288 11.1854 6.01616 11.265 6.08256C11.3314 6.13568 11.3514 6.20871 11.358 6.26183C11.3514 6.30167 11.3646 6.42119 11.358 6.51415Z" fill="#F8F8F8"/>
</g>
</svg>
