<svg width="18" height="18" viewBox="0 0 18 18" fill="none" xmlns="http://www.w3.org/2000/svg">
<g id="ic:baseline-tiktok">
<path id="Vector" d="M12.3524 4.67272C11.8823 4.13605 11.6232 3.44684 11.6234 2.7334H9.49842V11.2609C9.48203 11.7224 9.28721 12.1595 8.95498 12.4802C8.62274 12.8009 8.17903 12.9801 7.71727 12.9802C6.74073 12.9802 5.92924 12.1824 5.92924 11.1921C5.92924 10.0093 7.07083 9.12216 8.2468 9.48664V7.3135C5.87423 6.99716 3.79736 8.8402 3.79736 11.1921C3.79736 13.4822 5.69542 15.1121 7.71039 15.1121C9.86978 15.1121 11.6234 13.3584 11.6234 11.1921V6.86649C12.4851 7.48532 13.5197 7.81734 14.5805 7.81553V5.69052C14.5805 5.69052 13.2877 5.75242 12.3524 4.67272Z" fill="#F8F8F8"/>
</g>
</svg>
