<svg width="13" height="12" viewBox="0 0 13 12" fill="none" xmlns="http://www.w3.org/2000/svg">
<path id="Vector" d="M12.0754 9.05452L7.30608 0.77195C7.1869 0.56903 7.01676 0.40078 6.81253 0.283874C6.60829 0.166969 6.37704 0.105469 6.14171 0.105469C5.90638 0.105469 5.67514 0.166969 5.4709 0.283874C5.26666 0.40078 5.09652 0.56903 4.97734 0.77195L0.208063 9.05452C0.093391 9.25079 0.032959 9.47402 0.032959 9.70133C0.032959 9.92864 0.093391 10.1519 0.208063 10.3481C0.325717 10.5523 0.495567 10.7215 0.700186 10.8383C0.904805 10.9551 1.13682 11.0154 1.37243 11.013H10.911C11.1464 11.0152 11.3782 10.9548 11.5826 10.838C11.787 10.7212 11.9567 10.5521 12.0743 10.3481C12.1891 10.152 12.2497 9.92879 12.2499 9.70148C12.2501 9.47416 12.1899 9.25089 12.0754 9.05452ZM5.70542 4.46848C5.70542 4.35277 5.75138 4.2418 5.83321 4.15997C5.91503 4.07815 6.026 4.03219 6.14171 4.03219C6.25743 4.03219 6.3684 4.07815 6.45022 4.15997C6.53205 4.2418 6.57801 4.35277 6.57801 4.46848V6.64997C6.57801 6.76569 6.53205 6.87666 6.45022 6.95848C6.3684 7.0403 6.25743 7.08627 6.14171 7.08627C6.026 7.08627 5.91503 7.0403 5.83321 6.95848C5.75138 6.87666 5.70542 6.76569 5.70542 6.64997V4.46848ZM6.14171 9.26776C6.01228 9.26776 5.88575 9.22938 5.77812 9.15746C5.6705 9.08555 5.58662 8.98334 5.53708 8.86376C5.48755 8.74417 5.47459 8.61259 5.49984 8.48564C5.52509 8.35869 5.58742 8.24208 5.67895 8.15055C5.77048 8.05902 5.88709 7.99669 6.01404 7.97144C6.14099 7.94619 6.27257 7.95915 6.39216 8.00868C6.51174 8.05822 6.61396 8.1421 6.68587 8.24972C6.75778 8.35735 6.79616 8.48388 6.79616 8.61331C6.79616 8.78688 6.72721 8.95334 6.60448 9.07608C6.48174 9.19881 6.31528 9.26776 6.14171 9.26776Z" fill="#F8F8F8"/>
</svg>
