<svg width="17" height="17" viewBox="0 0 17 17" fill="none" xmlns="http://www.w3.org/2000/svg">
<g id="ri:youtube-fill">
<path id="Vector" d="M8.95168 3.2793C9.29992 3.28125 10.1712 3.28973 11.0972 3.3269L11.4259 3.34125C12.3578 3.38494 13.289 3.46059 13.7514 3.58906C14.3676 3.76253 14.8515 4.26728 15.0152 4.90767C15.2761 5.925 15.3087 7.90878 15.3126 8.38941L15.3132 8.48853V8.602C15.3087 9.08262 15.2761 11.0671 15.0152 12.0837C14.8496 12.7261 14.365 13.2315 13.7514 13.4023C13.289 13.5308 12.3578 13.6065 11.4259 13.6502L11.0972 13.6652C10.1712 13.7017 9.29992 13.7108 8.95168 13.7121L8.79843 13.7128H8.63214C7.89523 13.7082 4.81325 13.6749 3.83245 13.4023C3.21683 13.2289 2.7323 12.7241 2.56861 12.0837C2.30776 11.0664 2.27515 9.08262 2.27124 8.602V8.38941C2.27515 7.90878 2.30776 5.92435 2.56861 4.90767C2.73425 4.26532 3.21879 3.75992 3.8331 3.58971C4.81325 3.31647 7.89588 3.28321 8.63279 3.2793H8.95168ZM7.48765 6.21389V10.7788L11.4004 8.49636L7.48765 6.21389Z" fill="#F8F8F8"/>
</g>
</svg>
