<svg width="11" height="11" viewBox="0 0 11 11" fill="none" xmlns="http://www.w3.org/2000/svg">
<path id="Vector" d="M6.35644 4.25648H5.33674V3.23677H6.35644M6.35644 8.33531H5.33674V5.27619H6.35644M5.84659 0.6875C5.17704 0.6875 4.51405 0.819378 3.89546 1.0756C3.27688 1.33183 2.71482 1.70739 2.24138 2.18083C1.28521 3.13699 0.748047 4.43383 0.748047 5.78604C0.748047 7.13826 1.28521 8.4351 2.24138 9.39126C2.71482 9.8647 3.27688 10.2403 3.89546 10.4965C4.51405 10.7527 5.17704 10.8846 5.84659 10.8846C7.19881 10.8846 8.49564 10.3474 9.4518 9.39126C10.408 8.4351 10.9451 7.13826 10.9451 5.78604C10.9451 5.11649 10.8133 4.4535 10.557 3.83491C10.3008 3.21633 9.92525 2.65427 9.4518 2.18083C8.97836 1.70739 8.4163 1.33183 7.79772 1.0756C7.17913 0.819378 6.51614 0.6875 5.84659 0.6875Z" fill="#F8F8F8"/>
</svg>
