<svg width="15" height="16" viewBox="0 0 15 16" fill="none" xmlns="http://www.w3.org/2000/svg">
<path id="Vector" d="M10.2791 15.7617L7.7052 13.1878L8.72025 12.1728L10.261 13.7135L13.3424 10.6321L14.3574 11.6652L10.2791 15.7617ZM3.645 11.774L2.62994 10.7589L3.79 9.59887L2.62994 8.43882L3.645 7.42376L4.80505 8.58382L5.96511 7.42376L6.98016 8.43882L5.8201 9.59887L6.98016 10.7589L5.96511 11.774L4.80505 10.6139L3.645 11.774ZM1.90491 15.3992C1.50614 15.3992 1.16465 15.2571 0.880431 14.9728C0.596217 14.6886 0.454352 14.3474 0.454835 13.9491V3.79858C0.454835 3.39981 0.596942 3.05832 0.881157 2.77411C1.16537 2.48989 1.50662 2.34803 1.90491 2.34851H2.62994V0.898438H4.08002V2.34851H9.88031V0.898438H11.3304V2.34851H12.0554C12.4542 2.34851 12.7957 2.49062 13.0799 2.77483C13.3641 3.05905 13.506 3.4003 13.5055 3.79858V8.40256L12.0554 9.87076V6.69873H1.90491V13.9491H6.43639L7.86833 15.3992H1.90491Z" fill="#F8F8F8"/>
</svg>
