<svg width="18" height="18" viewBox="0 0 18 18" fill="none" xmlns="http://www.w3.org/2000/svg">
<g id="ri:instagram-fill">
<path id="Vector" d="M9.50046 2.09463C10.0196 2.09263 10.5388 2.09785 11.0578 2.11028L11.1958 2.11526C11.3551 2.12095 11.5123 2.12806 11.7023 2.1366C12.4592 2.17217 12.9757 2.29169 13.4289 2.46741C13.8984 2.64811 14.294 2.89284 14.6895 3.28838C15.0512 3.64381 15.3311 4.07375 15.5098 4.5483C15.6855 5.00148 15.805 5.51868 15.8406 6.27562C15.8491 6.46486 15.8563 6.6228 15.8619 6.78215L15.8662 6.92017C15.8789 7.43893 15.8843 7.95784 15.8826 8.47675L15.8833 9.00747V9.93942C15.885 10.4586 15.8796 10.9777 15.8669 11.4967L15.8627 11.6347C15.857 11.7941 15.8499 11.9513 15.8413 12.1413C15.8057 12.8982 15.6848 13.4147 15.5098 13.8679C15.3317 14.3429 15.0517 14.7732 14.6895 15.1285C14.3338 15.4901 13.9036 15.77 13.4289 15.9488C12.9757 16.1245 12.4592 16.244 11.7023 16.2796C11.5123 16.2881 11.3551 16.2952 11.1958 16.3009L11.0578 16.3052C10.5388 16.3178 10.0196 16.3233 9.50046 16.3215L8.96974 16.3223H8.0385C7.51935 16.324 7.0002 16.3186 6.4812 16.3059L6.34319 16.3016C6.17431 16.2955 6.00546 16.2884 5.83666 16.2803C5.07971 16.2447 4.56322 16.1238 4.10934 15.9488C3.6346 15.7704 3.20459 15.4905 2.84942 15.1285C2.48734 14.773 2.20717 14.3428 2.02845 13.8679C1.85273 13.4147 1.73321 12.8982 1.69764 12.1413C1.68971 11.9724 1.6826 11.8036 1.67629 11.6347L1.67274 11.4967C1.65962 10.9777 1.65369 10.4586 1.65495 9.93942V8.47675C1.65297 7.95784 1.65818 7.43893 1.6706 6.92017L1.67558 6.78215C1.68127 6.6228 1.68839 6.46486 1.69693 6.27562C1.7325 5.51796 1.85201 5.00219 2.02773 4.5483C2.20656 4.07352 2.48728 3.6437 2.85013 3.28909C3.20505 2.92681 3.6348 2.64638 4.10934 2.46741C4.56322 2.29169 5.079 2.17217 5.83666 2.1366L6.34319 2.11526L6.4812 2.1117C6.99996 2.09859 7.51887 2.09266 8.03779 2.09391L9.50046 2.09463ZM8.76912 5.65171C8.29781 5.64504 7.82988 5.73212 7.39251 5.90787C6.95515 6.08362 6.55708 6.34454 6.22143 6.67548C5.88578 7.00641 5.61925 7.40076 5.43733 7.83559C5.25541 8.27043 5.16173 8.73708 5.16173 9.20844C5.16173 9.6798 5.25541 10.1465 5.43733 10.5813C5.61925 11.0161 5.88578 11.4105 6.22143 11.7414C6.55708 12.0723 6.95515 12.3333 7.39251 12.509C7.82988 12.6848 8.29781 12.7718 8.76912 12.7652C9.71252 12.7652 10.6173 12.3904 11.2844 11.7233C11.9514 11.0562 12.3262 10.1515 12.3262 9.20809C12.3262 8.26469 11.9514 7.35993 11.2844 6.69285C10.6173 6.02576 9.71252 5.65171 8.76912 5.65171ZM8.76912 7.07454C9.05263 7.06932 9.33433 7.12064 9.59778 7.22551C9.86122 7.33038 10.1011 7.4867 10.3035 7.68533C10.5058 7.88396 10.6666 8.12092 10.7763 8.38237C10.8861 8.64382 10.9426 8.92453 10.9427 9.20808C10.9427 9.49163 10.8863 9.77235 10.7766 10.0338C10.667 10.2953 10.5063 10.5323 10.304 10.731C10.1017 10.9297 9.86185 11.0861 9.59844 11.1911C9.33503 11.296 9.05334 11.3475 8.76983 11.3423C8.20379 11.3423 7.66094 11.1175 7.26069 10.7172C6.86044 10.317 6.63558 9.77412 6.63558 9.20809C6.63558 8.64205 6.86044 8.09919 7.26069 7.69894C7.66094 7.29869 8.20379 7.07383 8.76983 7.07383L8.76912 7.07454ZM12.5041 4.58459C12.2746 4.59377 12.0575 4.6914 11.8984 4.85704C11.7392 5.02267 11.6504 5.24345 11.6504 5.47315C11.6504 5.70284 11.7392 5.92362 11.8984 6.08925C12.0575 6.25489 12.2746 6.35252 12.5041 6.3617C12.7399 6.3617 12.9661 6.26801 13.1329 6.10124C13.2996 5.93447 13.3933 5.70828 13.3933 5.47243C13.3933 5.23658 13.2996 5.01039 13.1329 4.84362C12.9661 4.67685 12.7399 4.58316 12.5041 4.58316V4.58459Z" fill="#F8F8F8"/>
</g>
</svg>
