<svg width="12" height="13" viewBox="0 0 12 13" fill="none" xmlns="http://www.w3.org/2000/svg">
<path id="Vector" d="M5.86481 0.723633C4.35702 0.723633 2.91099 1.3226 1.84482 2.38877C0.778654 3.45493 0.179688 4.90097 0.179688 6.40875C0.179688 7.91654 0.778654 9.36257 1.84482 10.4287C2.91099 11.4949 4.35702 12.0939 5.86481 12.0939C7.3726 12.0939 8.81863 11.4949 9.88479 10.4287C10.951 9.36257 11.5499 7.91654 11.5499 6.40875C11.5499 4.90097 10.951 3.45493 9.88479 2.38877C8.81863 1.3226 7.3726 0.723633 5.86481 0.723633ZM10.6024 4.81692C10.5168 5.09705 10.3745 5.35657 10.1844 5.57935C9.99418 5.80213 9.7602 5.98339 9.49697 6.11186C9.35673 5.58536 9.09759 5.09804 8.7395 4.68738C8.3814 4.27672 7.93389 3.95366 7.43137 3.74306C7.51316 3.46278 7.6895 3.21948 7.9304 3.05453C7.65878 2.87766 7.29872 2.78923 7.08395 3.09875C6.74916 3.53461 7.08395 4.11575 7.2166 4.36211V4.45054C6.86588 4.23781 6.59164 3.91934 6.43332 3.54093C5.82296 3.52132 5.21921 3.67226 4.68988 3.97678C4.63493 3.62014 4.66967 3.25542 4.79095 2.91556C5.01906 2.93734 5.24902 2.90263 5.46053 2.81449C5.67205 2.72636 5.85862 2.58752 6.00378 2.41022C6.29435 2.08174 5.92166 1.66484 5.63109 1.41216H5.85849C6.71845 1.40636 7.56518 1.62403 8.31573 2.04384C8.73995 2.35738 9.08883 2.76167 9.3369 3.22721C9.58498 3.69276 9.72598 4.20782 9.74964 4.7348C9.90124 4.7348 10.1918 4.38738 10.3245 4.15366C10.4331 4.36779 10.526 4.58951 10.6024 4.81692ZM5.86481 11.3611C4.56986 10.0472 6.02273 8.99232 5.23313 8.05112C4.65198 7.51419 3.78658 7.88688 3.2686 7.27415C3.18116 6.81736 3.21896 6.34542 3.37799 5.90837C3.53702 5.47131 3.81136 5.08544 4.17191 4.79165C4.50038 4.51371 6.69863 4.15997 7.59561 4.93062C8.12025 5.38249 8.48933 5.98804 8.65052 6.66142C8.9404 6.68332 9.23033 6.61963 9.48433 6.47824C9.74332 8.36064 7.49454 10.7358 5.86481 11.3611ZM3.43284 2.04384C3.67426 1.9518 3.93946 1.94282 4.18655 2.01832C4.43364 2.09382 4.64853 2.2495 4.79727 2.46075C4.53196 2.70079 4.20349 2.85871 3.84975 2.91556C3.86281 2.72956 3.90325 2.54651 3.96977 2.37232L3.43284 2.04384Z" fill="#F8F8F8"/>
</svg>
