<svg width="66" height="66" viewBox="0 0 66 66" fill="none" xmlns="http://www.w3.org/2000/svg">
<g id="solar:money-bag-bold">
<path id="Vector" fill-rule="evenodd" clip-rule="evenodd" d="M33.143 3.4375H32.857C30.3848 3.4375 28.325 3.4375 26.6915 3.6575C24.9645 3.8885 23.4052 4.4 22.154 5.65125C20.9 6.90525 20.3885 8.4645 20.1575 10.1887C20.0007 11.363 19.954 14.1652 19.943 16.5688C14.3825 16.753 11.0412 17.402 8.723 19.723C5.5 22.9433 5.5 28.1297 5.5 38.5C5.5 48.8703 5.5 54.0567 8.723 57.277C11.9432 60.5 17.1298 60.5 27.5 60.5H38.5C48.8703 60.5 54.0567 60.5 57.277 57.277C60.5 54.0567 60.5 48.8703 60.5 38.5C60.5 28.1297 60.5 22.9433 57.277 19.723C54.9587 17.402 51.6175 16.753 46.057 16.5715C46.046 14.1652 46.002 11.363 45.8425 10.1915C45.6115 8.4645 45.1 6.90525 43.846 5.654C42.5947 4.4 41.0355 3.8885 39.3085 3.6575C37.675 3.4375 35.6125 3.4375 33.143 3.4375ZM41.932 16.5055C41.9183 14.1762 41.8797 11.671 41.756 10.7387C41.5827 9.471 41.2885 8.9265 40.931 8.569C40.5735 8.2115 40.029 7.91725 38.7585 7.744C37.433 7.568 35.651 7.5625 33 7.5625C30.349 7.5625 28.567 7.568 27.2387 7.74675C25.971 7.91725 25.4265 8.2115 25.069 8.57175C24.7115 8.92925 24.4172 9.471 24.244 10.7387C24.1203 11.6737 24.079 14.1762 24.068 16.5055C25.1432 16.5 26.29 16.5 27.5 16.5H38.5C39.7127 16.5 40.8568 16.5 41.932 16.5055ZM33 25.4375C33.547 25.4375 34.0716 25.6548 34.4584 26.0416C34.8452 26.4284 35.0625 26.953 35.0625 27.5V27.5275C38.0573 28.281 40.5625 30.6432 40.5625 33.9158C40.5625 34.4628 40.3452 34.9874 39.9584 35.3742C39.5716 35.761 39.047 35.9782 38.5 35.9782C37.953 35.9782 37.4284 35.761 37.0416 35.3742C36.6548 34.9874 36.4375 34.4628 36.4375 33.9158C36.4375 32.8598 35.266 31.3967 33 31.3967C30.734 31.3967 29.5625 32.8598 29.5625 33.9158C29.5625 34.9718 30.734 36.4375 33 36.4375C36.8088 36.4375 40.5625 39.0775 40.5625 43.0843C40.5625 46.3568 38.0573 48.7162 35.0625 49.4725V49.5C35.0625 50.047 34.8452 50.5716 34.4584 50.9584C34.0716 51.3452 33.547 51.5625 33 51.5625C32.453 51.5625 31.9284 51.3452 31.5416 50.9584C31.1548 50.5716 30.9375 50.047 30.9375 49.5V49.4725C27.9428 48.719 25.4375 46.3568 25.4375 43.0843C25.4375 42.5372 25.6548 42.0126 26.0416 41.6258C26.4284 41.239 26.953 41.0218 27.5 41.0218C28.047 41.0218 28.5716 41.239 28.9584 41.6258C29.3452 42.0126 29.5625 42.5372 29.5625 43.0843C29.5625 44.1403 30.734 45.6032 33 45.6032C35.266 45.6032 36.4375 44.1403 36.4375 43.0843C36.4375 42.0282 35.266 40.5625 33 40.5625C29.1912 40.5625 25.4375 37.9225 25.4375 33.9158C25.4375 30.6432 27.9428 28.281 30.9375 27.5275V27.5C30.9375 26.953 31.1548 26.4284 31.5416 26.0416C31.9284 25.6548 32.453 25.4375 33 25.4375Z" fill="#F8F8F8"/>
</g>
</svg>
