<svg width="67" height="66" viewBox="0 0 67 66" fill="none" xmlns="http://www.w3.org/2000/svg">
<g id="mdi:books" clip-path="url(#clip0_457_371)">
<path id="Vector" d="M52.731 49.5H25.231C23.7723 49.5 22.3733 48.9205 21.3419 47.8891C20.3104 46.8576 19.731 45.4587 19.731 44V11C19.731 9.54131 20.3104 8.14236 21.3419 7.11091C22.3733 6.07946 23.7723 5.5 25.231 5.5H27.981V19.25L33.481 15.125L38.981 19.25V5.5H52.731C54.1896 5.5 55.5886 6.07946 56.62 7.11091C57.6515 8.14236 58.231 9.54131 58.231 11V44C58.231 45.4587 57.6515 46.8576 56.62 47.8891C55.5886 48.9205 54.1896 49.5 52.731 49.5ZM47.231 55V60.5H14.231C12.7723 60.5 11.3733 59.9205 10.3419 58.8891C9.31042 57.8576 8.73096 56.4587 8.73096 55V16.5H14.231V55H47.231Z" fill="#F8F8F8"/>
</g>
<defs>
<clipPath id="clip0_457_371">
<rect width="66" height="66" fill="white" transform="translate(0.480957)"/>
</clipPath>
</defs>
</svg>
