<svg width="26" height="27" viewBox="0 0 26 27" fill="none" xmlns="http://www.w3.org/2000/svg">
<g id="ri:instagram-fill">
<path id="Vector" d="M13.9118 2.56381C14.691 2.56082 15.4702 2.56866 16.2493 2.58731L16.4564 2.59478C16.6956 2.60332 16.9316 2.614 17.2167 2.62682C18.3529 2.68021 19.1282 2.85961 19.8084 3.12336C20.5131 3.39459 21.1069 3.76193 21.7006 4.35565C22.2434 4.88915 22.6636 5.53449 22.9318 6.24679C23.1956 6.92701 23.3749 7.70332 23.4283 8.8395C23.4412 9.12355 23.4518 9.36061 23.4604 9.59981L23.4668 9.80697C23.4858 10.5856 23.4939 11.3645 23.4913 12.1434L23.4924 12.94V14.3389C23.495 15.1181 23.4869 15.8974 23.4678 16.6764L23.4614 16.8835C23.4529 17.1227 23.4422 17.3587 23.4294 17.6438C23.376 18.78 23.1945 19.5553 22.9318 20.2355C22.6645 20.9485 22.2442 21.5944 21.7006 22.1277C21.1666 22.6705 20.5209 23.0906 19.8084 23.3589C19.1282 23.6227 18.3529 23.8021 17.2167 23.8555C16.9316 23.8683 16.6956 23.879 16.4564 23.8875L16.2493 23.8939C15.4702 23.9129 14.691 23.9211 13.9118 23.9185L13.1151 23.9195H11.7173C10.9381 23.9222 10.1589 23.914 9.37985 23.895L9.17269 23.8886C8.91919 23.8794 8.66575 23.8687 8.41238 23.8565C7.2762 23.8031 6.50095 23.6216 5.81967 23.3589C5.10708 23.0913 4.46163 22.671 3.92853 22.1277C3.38505 21.5941 2.96451 20.9483 2.69624 20.2355C2.43249 19.5553 2.25309 18.78 2.1997 17.6438C2.1878 17.3905 2.17713 17.137 2.16766 16.8835L2.16232 16.6764C2.14263 15.8974 2.13374 15.1181 2.13563 14.3389V12.1434C2.13265 11.3645 2.14048 10.5856 2.15912 9.80697L2.16659 9.59981C2.17514 9.36061 2.18581 9.12355 2.19863 8.8395C2.25202 7.70226 2.43142 6.92807 2.69517 6.24679C2.9636 5.53414 3.38496 4.88898 3.9296 4.35672C4.46233 3.81292 5.10738 3.392 5.81967 3.12336C6.50095 2.85961 7.27514 2.68021 8.41238 2.62682L9.17269 2.59478L9.37985 2.58944C10.1585 2.56976 10.9374 2.56087 11.7163 2.56275L13.9118 2.56381ZM12.814 7.90301C12.1066 7.893 11.4042 8.0237 10.7477 8.2875C10.0912 8.55131 9.49373 8.94296 8.98992 9.43969C8.48611 9.93642 8.08605 10.5283 7.81299 11.181C7.53993 11.8337 7.39932 12.5342 7.39932 13.2417C7.39932 13.9492 7.53993 14.6496 7.81299 15.3023C8.08605 15.955 8.48611 16.5469 8.98992 17.0437C9.49373 17.5404 10.0912 17.932 10.7477 18.1958C11.4042 18.4596 12.1066 18.5903 12.814 18.5803C14.2301 18.5803 15.5881 18.0178 16.5894 17.0165C17.5907 16.0152 18.1532 14.6572 18.1532 13.2411C18.1532 11.8251 17.5907 10.4671 16.5894 9.46576C15.5881 8.46446 14.2301 7.90301 12.814 7.90301ZM12.814 10.0387C13.2396 10.0308 13.6624 10.1079 14.0578 10.2653C14.4533 10.4227 14.8134 10.6573 15.1171 10.9555C15.4208 11.2536 15.6621 11.6093 15.8269 12.0017C15.9916 12.3942 16.0765 12.8155 16.0766 13.2411C16.0766 13.6667 15.9919 14.0881 15.8273 14.4806C15.6627 14.8731 15.4215 15.2289 15.1179 15.5271C14.8142 15.8253 14.4542 16.0601 14.0588 16.2176C13.6634 16.3752 13.2406 16.4524 12.8151 16.4447C11.9655 16.4447 11.1506 16.1071 10.5499 15.5064C9.94908 14.9056 9.61157 14.0908 9.61157 13.2411C9.61157 12.3915 9.94908 11.5767 10.5499 10.9759C11.1506 10.3751 11.9655 10.0376 12.8151 10.0376L12.814 10.0387ZM18.4202 6.30125C18.0757 6.31504 17.7499 6.46159 17.511 6.7102C17.2722 6.95882 17.1388 7.29021 17.1388 7.63498C17.1388 7.97975 17.2722 8.31115 17.511 8.55976C17.7499 8.80838 18.0757 8.95493 18.4202 8.96871C18.7742 8.96871 19.1137 8.82808 19.364 8.57776C19.6143 8.32744 19.755 7.98793 19.755 7.63391C19.755 7.2799 19.6143 6.94039 19.364 6.69007C19.1137 6.43975 18.7742 6.29912 18.4202 6.29912V6.30125Z" fill="#F8F8F8"/>
</g>
</svg>
