<svg width="21" height="21" viewBox="0 0 21 21" fill="none" xmlns="http://www.w3.org/2000/svg">
<g id="simple-icons:threads" clip-path="url(#clip0_643_147)">
<path id="Vector" d="M14.9679 9.52313C14.8827 9.48265 14.7967 9.44389 14.71 9.40688C14.5585 6.61192 13.0317 5.01222 10.4676 4.99585H10.4332C8.89904 4.99585 7.62436 5.65079 6.83925 6.84197L8.24901 7.80883C8.83518 6.91892 9.75537 6.72899 10.4341 6.72899H10.457C11.301 6.73472 11.9388 6.98032 12.3506 7.45925C12.651 7.80719 12.8516 8.28939 12.9507 8.89685C12.1499 8.76682 11.337 8.72755 10.5274 8.77978C8.09019 8.92059 6.52242 10.3418 6.62803 12.3173C6.68124 13.3193 7.18063 14.1814 8.0337 14.7447C8.75413 15.2211 9.68333 15.4536 10.6494 15.4012C11.924 15.3308 12.9237 14.8445 13.6212 13.9555C14.1517 13.28 14.4865 12.4049 14.6347 11.3021C15.2421 11.6689 15.6924 12.1511 15.9413 12.7307C16.3645 13.7172 16.3891 15.3374 15.0669 16.6579C13.9085 17.8155 12.516 18.3157 10.412 18.3313C8.07791 18.3149 6.31202 17.5658 5.16423 16.1069C4.08931 14.7397 3.53425 12.7667 3.51378 10.2411C3.53425 7.7155 4.08931 5.74167 5.16423 4.37529C6.31202 2.91641 8.07709 2.16814 10.412 2.15095C12.7624 2.16732 14.5585 2.92051 15.7505 4.38594C16.3351 5.10555 16.7755 6.00937 17.0662 7.06301L18.7182 6.62256C18.3662 5.32496 17.812 4.20747 17.0588 3.2799C15.5303 1.3994 13.2953 0.43664 10.4177 0.416992H10.4062C7.53185 0.43664 5.32388 1.4035 3.83962 3.29055C2.51827 4.96883 1.83713 7.30616 1.81421 10.2346V10.2477C1.83713 13.1769 2.51827 15.5126 3.8388 17.1917C5.32306 19.0787 7.53267 20.0456 10.4062 20.0652H10.4177C12.972 20.0472 14.7722 19.3784 16.2548 17.8966C18.1959 15.9579 18.1378 13.5281 17.4976 12.0365C17.0391 10.9665 16.164 10.0978 14.9679 9.52313ZM10.5577 13.6697C9.4893 13.7303 8.38 13.2506 8.32433 12.2239C8.28339 11.4626 8.86629 10.612 10.6232 10.5113C10.8246 10.499 11.0219 10.4941 11.2159 10.4941C11.8545 10.4941 12.4505 10.5555 12.9932 10.6742C12.791 13.2023 11.6039 13.6124 10.5577 13.6697Z" fill="#F8F8F8"/>
</g>
<defs>
<clipPath id="clip0_643_147">
<rect width="19.6482" height="19.6482" fill="white" transform="translate(0.442383 0.416992)"/>
</clipPath>
</defs>
</svg>
