<svg width="26" height="25" viewBox="0 0 26 25" fill="none" xmlns="http://www.w3.org/2000/svg">
<g id="ic:baseline-tiktok">
<path id="Vector" d="M17.3965 6.00761C16.6909 5.20207 16.3021 4.16756 16.3024 3.09668H13.1127V15.8965C13.0881 16.5892 12.7957 17.2453 12.297 17.7266C11.7983 18.208 11.1323 18.477 10.4392 18.4771C8.97343 18.4771 7.75538 17.2797 7.75538 15.7933C7.75538 14.0178 9.4689 12.6862 11.234 13.2333V9.97143C7.6728 9.4966 4.55542 12.263 4.55542 15.7933C4.55542 19.2307 7.40442 21.6771 10.4289 21.6771C13.6701 21.6771 16.3024 19.0449 16.3024 15.7933V9.30047C17.5958 10.2293 19.1486 10.7277 20.741 10.725V7.53533C20.741 7.53533 18.8004 7.62823 17.3965 6.00761Z" fill="#F8F8F8"/>
</g>
</svg>
