<svg width="24" height="25" viewBox="0 0 24 25" fill="none" xmlns="http://www.w3.org/2000/svg">
<g id="mdi:twitter">
<path id="Vector" d="M22.42 6.40639C21.6526 6.75521 20.8253 6.98444 19.9682 7.09407C20.8453 6.56585 21.523 5.72866 21.8419 4.72205C21.0147 5.22037 20.0978 5.5692 19.131 5.76853C18.3437 4.91141 17.2374 4.41309 15.9816 4.41309C13.6395 4.41309 11.7259 6.32665 11.7259 8.68871C11.7259 9.02758 11.7658 9.35647 11.8356 9.66543C8.28749 9.48603 5.12811 7.78176 3.02518 5.20044C2.65642 5.82833 2.44712 6.56585 2.44712 7.34324C2.44712 8.82825 3.19461 10.1438 4.35072 10.8913C3.6431 10.8913 2.98531 10.692 2.40725 10.393V10.4229C2.40725 12.4959 3.8823 14.2301 5.83573 14.6188C5.20857 14.7904 4.55015 14.8143 3.9122 14.6885C4.18289 15.5382 4.71304 16.2816 5.42812 16.8143C6.14319 17.3471 7.00724 17.6423 7.8988 17.6586C6.38751 18.855 4.51417 19.5017 2.58665 19.4924C2.24779 19.4924 1.90893 19.4725 1.57007 19.4326C3.4637 20.6485 5.71613 21.3561 8.12802 21.3561C15.9816 21.3561 20.2971 14.838 20.2971 9.18704C20.2971 8.99768 20.2971 8.81828 20.2872 8.62892C21.1243 8.03093 21.8419 7.27347 22.42 6.40639Z" fill="#F8F8F8"/>
</g>
</svg>
