<svg width="24" height="24" viewBox="0 0 24 24" fill="none" xmlns="http://www.w3.org/2000/svg">
<g id="ri:youtube-fill">
<path id="Vector" d="M12.3469 4.34277C12.8697 4.34571 14.1774 4.35844 15.5674 4.41423L16.0607 4.43576C17.4595 4.50135 18.8573 4.61489 19.5513 4.80773C20.4763 5.0681 21.2026 5.82574 21.4483 6.78697C21.8399 8.31398 21.8888 11.2916 21.8947 12.0131L21.8957 12.1618V12.3322C21.8888 13.0536 21.8399 16.0322 21.4483 17.5583C21.1997 18.5224 20.4724 19.281 19.5513 19.5375C18.8573 19.7303 17.4595 19.8439 16.0607 19.9095L15.5674 19.932C14.1774 19.9868 12.8697 20.0005 12.3469 20.0025L12.1169 20.0034H11.8673C10.7612 19.9966 6.13515 19.9467 4.66295 19.5375C3.73892 19.2771 3.01163 18.5195 2.76594 17.5583C2.3744 16.0313 2.32545 13.0536 2.31958 12.3322V12.0131C2.32545 11.2916 2.3744 8.313 2.76594 6.78697C3.01457 5.8228 3.74185 5.06419 4.66393 4.80871C6.13515 4.39857 10.7622 4.34865 11.8683 4.34277H12.3469ZM10.1494 8.74761V15.5996L16.0225 12.1736L10.1494 8.74761Z" fill="#F8F8F8"/>
</g>
</svg>
