<svg width="13" height="13" viewBox="0 0 13 13" fill="none" xmlns="http://www.w3.org/2000/svg">
<g clip-path="url(#clip0_453_116)">
<path fill-rule="evenodd" clip-rule="evenodd" d="M5.75091 2.00061C6.24247 2.00065 6.72051 2.16158 7.11202 2.45882C7.50353 2.75606 7.78699 3.17328 7.9191 3.64676L7.9451 3.74927L8.88019 3.51575C8.94853 3.49873 9.0197 3.49635 9.08904 3.50876C9.15837 3.52116 9.2243 3.54807 9.28251 3.58773C9.34071 3.62738 9.38989 3.67889 9.42681 3.73887C9.46373 3.79885 9.48756 3.86595 9.49674 3.93578L9.50124 4.00079V4.90587C9.78315 5.17616 10.0142 5.49492 10.1833 5.84695L10.2523 6.00097H10.5013C10.6238 6.00098 10.742 6.04595 10.8335 6.12733C10.9251 6.20872 10.9835 6.32087 10.9979 6.4425L11.0014 6.50101V8.00114C11.0014 8.08345 10.9811 8.16448 10.9423 8.23706C10.9035 8.30963 10.8473 8.3715 10.7789 8.41718L10.7249 8.44818L10.1408 8.74071C9.9017 9.20329 9.55536 9.60193 9.13071 9.90331L9.0012 9.99032V10.5014C9.00118 10.6238 8.95622 10.7421 8.87483 10.8336C8.79344 10.9251 8.6813 10.9836 8.55966 10.9979L8.50115 11.0014H7.00102C6.87854 11.0014 6.76033 10.9564 6.66881 10.875C6.57728 10.7937 6.51881 10.6815 6.50448 10.5599L6.50098 10.5014H6.00093C6.00092 10.6238 5.95595 10.7421 5.87456 10.8336C5.79318 10.9251 5.68103 10.9836 5.55939 10.9979L5.50089 11.0014H4.00075C3.87828 11.0014 3.76006 10.9564 3.66854 10.875C3.57701 10.7937 3.51854 10.6815 3.50421 10.5599L3.50071 10.5014V9.99032C3.13947 9.75937 2.82743 9.45931 2.58251 9.10739C2.3376 8.75547 2.16464 8.35861 2.07358 7.93964C1.77872 7.85188 1.51794 7.67565 1.32654 7.43479C1.13515 7.19393 1.02237 6.90008 1.00349 6.59302L1.00049 6.50101V6.25099C1.00063 6.12354 1.04943 6.00095 1.13692 5.90827C1.22442 5.8156 1.344 5.75983 1.47123 5.75236C1.59846 5.74489 1.72374 5.78628 1.82148 5.86809C1.91921 5.94989 1.98202 6.06592 1.99708 6.19248L2.00058 6.25099V6.50101C2.00058 6.57502 2.01658 6.64552 2.04558 6.70853C2.12191 6.25835 2.29217 5.82928 2.54529 5.44925C2.79841 5.06922 3.12872 4.74676 3.51471 4.50283C3.47923 4.18805 3.51062 3.86932 3.60681 3.5675C3.70301 3.26568 3.86185 2.98757 4.07294 2.75137C4.28402 2.51517 4.54261 2.3262 4.83176 2.19683C5.12092 2.06745 5.43413 2.00059 5.75091 2.00061ZM8.00111 6.00097C7.86849 6.00097 7.7413 6.05365 7.64753 6.14743C7.55375 6.2412 7.50107 6.36839 7.50107 6.50101C7.50107 6.63363 7.55375 6.76082 7.64753 6.85459C7.7413 6.94837 7.86849 7.00105 8.00111 7.00105C8.13373 7.00105 8.26092 6.94837 8.3547 6.85459C8.44847 6.76082 8.50115 6.63363 8.50115 6.50101C8.50115 6.36839 8.44847 6.2412 8.3547 6.14743C8.26092 6.05365 8.13373 6.00097 8.00111 6.00097ZM5.75091 3.0007C5.44803 3.0007 5.15545 3.11066 4.92754 3.31015C4.69963 3.50963 4.5519 3.78508 4.5118 4.0853C4.75412 4.02902 5.00209 4.00067 5.25087 4.00079H6.93952L6.97452 3.99229C6.91522 3.71174 6.76128 3.46011 6.5385 3.27957C6.31572 3.09904 6.03765 3.00058 5.75091 3.0007Z" fill="#F8F8F8"/>
</g>
<defs>
<clipPath id="clip0_453_116">
<rect width="12.0011" height="12.0011" fill="white" transform="translate(0.000244141 0.500488)"/>
</clipPath>
</defs>
</svg>
