<svg width="120" height="103" viewBox="0 0 120 103" fill="none" xmlns="http://www.w3.org/2000/svg">
<g clip-path="url(#clip0_52_541)">
<path d="M29.5898 0.0475931C17.7949 0.62955 6.69209 8.64504 2.65748 19.8114C-1.10549 28.2079 0.377962 37.4929 0.0781076 46.3874C0.0394334 63.4933 0.327327 80.5977 0.0781076 97.7011C0.415219 98.9611 -0.703302 104.404 0.850904 102.166C3.89661 96.6043 9.41777 92.8369 15.7575 92.2736C30.0144 91.0881 44.3667 91.7177 58.6713 91.558C69.0442 91.4558 79.4351 91.7691 89.796 91.389C99.6059 89.7156 109.985 85.2598 114.749 75.9405C118.509 69.647 120.42 62.3426 119.922 55.0224C119.761 46.0531 120.3 37.0498 119.532 28.1086C118.28 17.9252 113.237 7.35802 103.456 2.94196C95.0651 -1.27289 85.5226 0.388949 76.5018 0.0475931C60.8645 0.0475931 45.2271 0.0475931 29.5898 0.0475931Z" fill="#0071BC"/>
<path d="M29.0709 16.5851C25.2181 16.591 21.3647 16.6383 17.5146 16.6007V46.1031V75.6086H31.8053C31.8499 69.1864 31.8951 62.7648 31.9396 56.3426C36.5221 62.7648 41.1041 69.1864 45.6865 75.6086C51.3588 75.5747 57.0382 75.7019 62.7053 75.4773C57.77 69.0878 52.6673 62.8286 47.6396 56.5115C46.4371 55.5857 47.3929 55.3385 48.4521 55.1233C54.2762 53.8371 58.8055 49.0162 60.5396 43.4174C62.0105 38.0133 61.7779 31.9538 59.1334 26.934C56.2953 21.1919 50.2289 17.5041 43.9146 17.0322C38.9757 16.6366 34.0245 16.5775 29.0709 16.5851ZM65.3053 16.6007V29.3728C70.6645 29.3742 76.0242 29.3682 81.3834 29.3759C83.5321 29.543 86.093 29.0269 87.9584 29.8199C80.9272 45.0956 73.6572 60.2619 66.5834 75.5179C72.0708 75.6753 77.565 75.5848 83.0553 75.6086C89.9716 59.7716 96.8858 43.9341 103.802 28.0971C103.934 24.2886 103.821 20.4288 103.858 16.6007L65.3053 16.6007ZM31.9084 29.8293C35.2924 30.0447 38.7838 29.6337 42.0615 30.6171C45.1697 31.5277 47.3765 34.6824 46.9928 37.9302C47.3525 41.2474 45.1347 44.3906 42.0615 45.5059L41.6115 45.6685C38.4094 46.4043 35.0766 46.1036 31.8115 46.2813V32.6494C31.876 31.742 31.6834 30.5719 31.9084 29.8293Z" fill="white"/>
</g>
<defs>
<clipPath id="clip0_52_541">
<rect width="120" height="102.7" fill="white"/>
</clipPath>
</defs>
</svg>
