<svg width="30" height="25" viewBox="0 0 30 25" fill="none" xmlns="http://www.w3.org/2000/svg">
<g clip-path="url(#clip0_52_549)">
<path d="M7.17305 0.0115391C4.31377 0.152637 1.62227 2.09602 0.644217 4.80336C-0.26799 6.83911 0.0916242 9.09029 0.0189346 11.2468C0.00955931 15.3942 0.0793496 19.5412 0.0189346 23.688C0.100656 23.9935 -0.170492 25.3131 0.206273 24.7706C0.944604 23.4221 2.28302 22.5087 3.81988 22.3721C7.27599 22.0847 10.7552 22.2373 14.2229 22.1986C16.7375 22.1738 19.2564 22.2498 21.768 22.1576C24.1461 21.7519 26.6621 20.6716 27.817 18.412C28.7286 16.8862 29.1919 15.1152 29.0711 13.3404C29.032 11.1657 29.1628 8.98286 28.9766 6.81505C28.673 4.34604 27.4506 1.78398 25.0794 0.71329C23.0454 -0.308616 20.7321 0.0943022 18.5453 0.0115391C14.7546 0.0115391 10.9638 0.0115391 7.17305 0.0115391Z" fill="#0071BC"/>
<path d="M7.04703 4.02114C6.11304 4.02257 5.17893 4.03404 4.24561 4.02493V11.1779V18.3316H7.70989C7.7207 16.7745 7.73166 15.2176 7.74247 13.6605C8.85333 15.2176 9.96408 16.7745 11.0749 18.3316C12.45 18.3234 13.8268 18.3542 15.2006 18.2998C14.0042 16.7506 12.7672 15.2331 11.5484 13.7014C11.2569 13.477 11.4886 13.417 11.7454 13.3649C13.1572 13.053 14.2552 11.8842 14.6756 10.5267C15.0321 9.21651 14.9758 7.74735 14.3347 6.53029C13.6467 5.13808 12.1761 4.24396 10.6454 4.12954C9.44813 4.03363 8.24788 4.0193 7.04703 4.02114ZM15.8308 4.02493V7.12157C17.13 7.12191 18.4293 7.12046 19.7285 7.12232C20.2493 7.16284 20.8701 7.03772 21.3223 7.22997C19.6179 10.9336 17.8555 14.6107 16.1407 18.3096C17.4709 18.3478 18.8028 18.3259 20.1337 18.3316C21.8104 14.4919 23.4865 10.652 25.1631 6.81228C25.195 5.8889 25.1677 4.95307 25.1768 4.02493L15.8308 4.02493ZM7.73489 7.23224C8.55524 7.28447 9.40161 7.18484 10.1962 7.42327C10.9497 7.64403 11.4846 8.40889 11.3916 9.19635C11.4788 10.0006 10.9412 10.7627 10.1962 11.0331L10.0871 11.0725C9.31084 11.2509 8.50292 11.178 7.71141 11.2211V7.916C7.72705 7.69599 7.68034 7.4123 7.73489 7.23224Z" fill="white"/>
</g>
<defs>
<clipPath id="clip0_52_549">
<rect width="29.09" height="24.9" fill="white"/>
</clipPath>
</defs>
</svg>
