<svg width="17" height="17" viewBox="0 0 17 17" fill="none" xmlns="http://www.w3.org/2000/svg">
<path d="M8.20801 15.0477C6.62343 14.6487 5.31518 13.7395 4.28327 12.32C3.25136 10.9005 2.73563 9.32455 2.73608 7.59223V3.41989L8.20801 1.36792L13.6799 3.41989V7.59223C13.6799 9.32501 13.164 10.9012 12.1321 12.3207C11.1001 13.7402 9.79213 14.6492 8.20801 15.0477ZM8.20801 13.6113C9.39359 13.2352 10.374 12.4828 11.1492 11.3542C11.9244 10.2256 12.3119 8.97161 12.3119 7.59223V4.36038L8.20801 2.8214L4.10407 4.36038V7.59223C4.10407 8.97161 4.49166 10.2256 5.26685 11.3542C6.04204 12.4828 7.02242 13.2352 8.20801 13.6113Z" fill="#F8F8F8"/>
</svg>
