<svg width="24" height="24" viewBox="0 0 24 24" fill="none" xmlns="http://www.w3.org/2000/svg">
<g clip-path="url(#clip0_57_543)">
<mask id="mask0_57_543" style="mask-type:luminance" maskUnits="userSpaceOnUse" x="0" y="0" width="24" height="24">
<path d="M24 0H0V24H24V0Z" fill="white"/>
</mask>
<g mask="url(#mask0_57_543)">
<path d="M17.7433 11.123C17.6392 11.0735 17.5342 11.0262 17.4283 10.981C17.2433 7.56699 15.3783 5.61297 12.2463 5.59299H12.2043C10.3303 5.59299 8.77328 6.39303 7.81427 7.848L9.53627 9.02901C10.2523 7.94202 11.3763 7.71 12.2053 7.71H12.2333C13.2643 7.71699 14.0433 8.01699 14.5463 8.60202C14.9133 9.02703 15.1583 9.61602 15.2793 10.358C14.3011 10.1992 13.3082 10.1512 12.3193 10.215C9.34229 10.387 7.4273 12.123 7.55627 14.536C7.62128 15.76 8.2313 16.813 9.27326 17.501C10.1533 18.083 11.2883 18.367 12.4683 18.303C14.0253 18.217 15.2463 17.623 16.0983 16.537C16.7463 15.712 17.1553 14.643 17.3363 13.296C18.0783 13.744 18.6283 14.333 18.9323 15.041C19.4493 16.246 19.4793 18.225 17.8643 19.838C16.4493 21.252 14.7483 21.863 12.1783 21.882C9.32726 21.862 7.17029 20.947 5.76827 19.165C4.45527 17.495 3.77727 15.085 3.75227 12C3.77727 8.91501 4.45527 6.504 5.76827 4.835C7.17029 3.053 9.32627 2.139 12.1783 2.118C15.0493 2.138 17.2433 3.058 18.6993 4.848C19.4133 5.72697 19.9513 6.83097 20.3063 8.118L22.3243 7.57998C21.8943 5.99499 21.2173 4.63 20.2973 3.497C18.4303 1.2 15.7003 0.024 12.1853 0H12.1713C8.66027 0.024 5.9633 1.205 4.15027 3.51C2.53627 5.56002 1.70427 8.41497 1.67627 11.992V12.008C1.70427 15.586 2.53627 18.439 4.14927 20.49C5.96225 22.795 8.66126 23.976 12.1713 24H12.1853C15.3053 23.978 17.5043 23.161 19.3153 21.351C21.6863 18.983 21.6153 16.015 20.8333 14.193C20.2733 12.886 19.2043 11.825 17.7433 11.123ZM12.3563 16.188C11.0513 16.262 9.69629 15.676 9.62825 14.422C9.57827 13.492 10.2903 12.453 12.4363 12.33C12.6823 12.315 12.9233 12.309 13.1603 12.309C13.9403 12.309 14.6683 12.384 15.3313 12.529C15.0843 15.617 13.6343 16.118 12.3563 16.188Z" fill="#F8F8F8"/>
</g>
</g>
<defs>
<clipPath id="clip0_57_543">
<rect width="24" height="24" fill="white"/>
</clipPath>
</defs>
</svg>