<svg width="19" height="16" viewBox="0 0 19 16" fill="none" xmlns="http://www.w3.org/2000/svg">
<g id="icomoon-free:users" clip-path="url(#clip0_454_295)">
<path id="Vector" d="M12.208 12.041V11.216C13.31 10.595 14.208 9.048 14.208 7.5C14.208 5.015 14.208 3 11.208 3C8.20801 3 8.20801 5.015 8.20801 7.5C8.20801 9.048 9.10601 10.595 10.208 11.216V12.041C6.81601 12.318 4.20801 13.985 4.20801 16H18.208C18.208 13.985 15.6 12.318 12.208 12.041Z" fill="#F8F8F8"/>
<path id="Vector_2" d="M5.32001 12.427C6.18401 11.862 7.25901 11.433 8.44201 11.171C8.20112 10.8853 7.98909 10.5764 7.80901 10.249C7.3399 9.40855 7.09021 8.46344 7.08301 7.50098C7.08301 6.15698 7.08301 4.88698 7.56101 3.84798C8.02501 2.83998 8.86001 2.21498 10.049 1.98098C9.78501 0.785976 9.08101 0.000976562 7.20801 0.000976562C4.20801 0.000976562 4.20801 2.01598 4.20801 4.50098C4.20801 6.04898 5.10601 7.59598 6.20801 8.21698V9.04198C2.81601 9.31898 0.208008 10.986 0.208008 13.001H4.56701C4.79401 12.799 5.04501 12.608 5.32001 12.428V12.427Z" fill="#F8F8F8"/>
</g>
<defs>
<clipPath id="clip0_454_295">
<rect width="18" height="16" fill="white" transform="translate(0.208008)"/>
</clipPath>
</defs>
</svg>
